HIERARCHY
ROOT Hips
{
	OFFSET 0.000000 8.830580 0.000000
	CHANNELS 6 Xposition Yposition Zposition Zrotation Yrotation Xrotation 
	JOINT Spine
	{
		OFFSET 0.000000 0.010000 0.000000
		CHANNELS 3 Zrotation Yrotation Xrotation
		JOINT Spine1
		{
			OFFSET 0.000000 2.459130 0.000000
			CHANNELS 3 Zrotation Yrotation Xrotation
			JOINT Neck
			{
				OFFSET 0.000000 2.484630 0.000000
				CHANNELS 3 Zrotation Yrotation Xrotation
				JOINT Head_virtual
				{
					OFFSET 0.000000 0.000000 0.000000
					CHANNELS 3 Zrotation Yrotation Xrotation
					JOINT Head
					{
						OFFSET 0.000000 0.927525 0.000000
						CHANNELS 3 Zrotation Yrotation Xrotation
						End Site
						{
							OFFSET 0.000000 0.000000 0.000000
						}
					}
				}
				JOINT LeftUpArm_virtual
				{
					OFFSET 0.000000 0.000000 0.000000
					CHANNELS 3 Zrotation Yrotation Xrotation
					JOINT LeftUpArm
					{
						OFFSET 1.248820 0.000000 0.000000
						CHANNELS 3 Zrotation Yrotation Xrotation
						JOINT LeftForeArm
						{
							OFFSET 2.597580 0.000000 0.000000
							CHANNELS 3 Zrotation Yrotation Xrotation
							JOINT LeftHand
							{
								OFFSET 2.455420 0.000000 0.000000
								CHANNELS 3 Zrotation Yrotation Xrotation
								End Site
								{
									OFFSET 0.000000 0.000000 0.000000
								}
							}
						}
					}
				}
				JOINT RightUpArm_virtual
				{
					OFFSET -0.000000 -0.000000 -0.000000
					CHANNELS 3 Zrotation Yrotation Xrotation
					JOINT RightUpArm
					{
						OFFSET -1.248820 -0.000000 -0.000000
						CHANNELS 3 Zrotation Yrotation Xrotation
						JOINT RightForeArm
						{
							OFFSET -2.597580 -0.000000 -0.000000
							CHANNELS 3 Zrotation Yrotation Xrotation
							JOINT RightHand
							{
								OFFSET -2.455420 -0.000000 -0.000000
								CHANNELS 3 Zrotation Yrotation Xrotation
								End Site
								{
									OFFSET 0.000000 0.000000 0.000000
								}
							}
						}
					}
				}
			}
		}
	}
	JOINT LeftUpLeg
	{
		OFFSET 1.271939 0.000000 0.000000
		CHANNELS 3 Zrotation Yrotation Xrotation
		JOINT LeftLowLeg
		{
			OFFSET 0.000000 -4.342910 0.000000
			CHANNELS 3 Zrotation Yrotation Xrotation
			JOINT LeftFoot
			{
				OFFSET 0.000000 -4.487670 0.000000
				CHANNELS 3 Zrotation Yrotation Xrotation
				JOINT LeftToeBase
				{
					OFFSET 0.000000 0.000000 1.515070
					CHANNELS 3 Zrotation Yrotation Xrotation
					End Site
					{
						OFFSET 0.000000 0.000000 0.000000
					}
				}
			}
		}
	}
	JOINT RightUpLeg
	{
		OFFSET -1.271939 0.000000 0.000000
		CHANNELS 3 Zrotation Yrotation Xrotation
		JOINT RightLowLeg
		{
			OFFSET 0.000000 -4.342910 0.000000
			CHANNELS 3 Zrotation Yrotation Xrotation
			JOINT RightFoot
			{
				OFFSET 0.000000 -4.487670 0.000000
				CHANNELS 3 Zrotation Yrotation Xrotation
				JOINT RightToeBase
				{
					OFFSET 0.000000 0.000000 1.515070
					CHANNELS 3 Zrotation Yrotation Xrotation
					End Site
					{
						OFFSET 0.000000 0.000000 0.000000
					}
				}
			}
		}
	}
}
MOTION
Frames: 8
Frame Time: 0.041667
-19.559405 9.205257 49.261562 -175.637359 -0.365686 -173.362605 3.351963 -2.176073 -9.894988 -0.168434 -2.658705 6.645025 0.000000 0.000000 0.000000 -3.573492 -0.027002 -5.227315 7.351497 5.424022 -54.234945 -3.217150 12.594300 -0.689726 -11.366500 -4.573720 -31.644699 0.000000 -19.607300 0.000000 24.566999 7.935560 22.351101 10.437100 -9.318520 0.388275 9.236190 0.511264 -35.279301 0.000000 20.727800 0.000000 -16.447399 -1.012100 25.661200 5.785550 -0.248430 -5.351170 0.000000 0.000000 7.514300 -11.205303 0.509846 5.645344 0.000000 0.000000 -38.004700 1.563556 4.790859 -3.610049 0.000000 0.000000 6.398370 8.962509 -7.567210 9.064590 0.000000 0.000000 -27.739100 
-19.559405 9.205257 49.261562 -175.637359 -0.365686 -173.362605 3.351963 -2.176073 -9.894988 -0.168434 -2.658705 6.645025 0.000000 0.000000 0.000000 -3.573492 -0.027002 -5.227315 7.351497 5.424022 -54.234945 -3.217150 12.594300 -0.689726 -11.366500 -4.573720 -31.644699 0.000000 -19.607300 0.000000 24.566999 7.935560 22.351101 10.437100 -9.318520 0.388275 9.236190 0.511264 -35.279301 0.000000 20.727800 0.000000 -16.447399 -1.012100 25.661200 5.785550 -0.248430 -5.351170 0.000000 0.000000 7.514300 -11.205303 0.509846 5.645344 0.000000 0.000000 -38.004700 1.563556 4.790859 -3.610049 0.000000 0.000000 6.398370 8.962509 -7.567210 9.064590 0.000000 0.000000 -27.739100 
-19.558872 9.205269 49.260183 -175.635029 -0.381987 -173.355044 3.329460 -2.200974 -9.930791 -0.117695 -2.676065 6.685544 0.000000 0.000000 0.000000 -3.614291 0.042738 -5.266385 7.334251 5.455877 -54.190926 -3.231200 12.590400 -0.703975 -11.438300 -4.541400 -31.886000 0.000000 -19.673201 0.000000 24.481800 8.035050 22.337299 10.398200 -9.259960 0.359514 9.219080 0.436373 -35.287800 0.000000 20.751499 0.000000 -16.520599 -0.972083 25.693701 5.793171 -0.294428 -5.359411 0.000000 0.000000 7.526290 -11.213746 0.538255 5.629400 0.000000 0.000000 -37.987000 1.571630 4.793094 -3.606298 0.000000 0.000000 6.397340 8.951719 -7.585576 9.055625 0.000000 0.000000 -27.732200 
-19.558806 9.205266 49.259785 -175.636448 -0.386037 -173.350319 3.324295 -2.202620 -9.930711 -0.110434 -2.676233 6.669307 0.000000 0.000000 0.000000 -3.625406 0.072955 -5.262472 7.344467 5.474610 -54.179530 -3.229020 12.571900 -0.705973 -11.477900 -4.517250 -31.978701 0.000000 -19.703800 0.000000 24.499100 8.064170 22.256901 10.386000 -9.257070 0.356609 9.215400 0.420669 -35.280601 0.000000 20.758801 0.000000 -16.566401 -0.975685 25.746799 5.790779 -0.231764 -5.363514 0.000000 0.000000 7.524670 -11.214560 0.474079 5.642674 0.000000 0.000000 -37.997299 1.569820 4.796508 -3.608273 0.000000 0.000000 6.398500 8.963195 -7.587452 9.051397 0.000000 0.000000 -27.734300 
-19.558498 9.205158 49.259394 -175.634622 -0.386215 -173.347739 3.320678 -2.199344 -9.928588 -0.106981 -2.672035 6.661516 0.000000 0.000000 0.000000 -3.609530 0.090087 -5.265534 7.313713 5.512781 -54.163638 -3.221260 12.575000 -0.706029 -11.517000 -4.528310 -32.051300 0.000000 -19.718800 0.000000 24.495399 8.072970 22.155100 10.382500 -9.285600 0.369940 9.203590 0.445067 -35.287498 0.000000 20.754299 0.000000 -16.602301 -0.964962 25.766701 5.796638 -0.314369 -5.371391 0.000000 0.000000 7.543500 -11.217321 0.551439 5.611381 0.000000 0.000000 -37.972200 1.573047 4.798894 -3.609982 0.000000 0.000000 6.401370 8.965389 -7.585700 9.046839 0.000000 0.000000 -27.735400 
-19.558078 9.205047 49.258709 -175.634960 -0.393362 -173.341014 3.321992 -2.200935 -9.932271 -0.124013 -2.674189 6.652557 0.000000 0.000000 0.000000 -3.607720 0.151013 -5.287139 7.306577 5.574828 -54.127775 -3.204730 12.554100 -0.703563 -11.557500 -4.477150 -32.011501 0.000000 -19.740499 0.000000 24.403999 8.063740 22.143900 10.368100 -9.263210 0.340099 9.214090 0.399987 -35.244801 0.000000 20.765301 0.000000 -16.610399 -1.004850 25.775400 5.799638 -0.300500 -5.366464 0.000000 0.000000 7.524760 -11.221141 0.531993 5.621103 0.000000 0.000000 -38.010799 1.576463 4.778584 -3.607948 0.000000 0.000000 6.394210 8.948516 -7.577086 9.044850 0.000000 0.000000 -27.731300 
-19.557777 9.205038 49.258419 -175.634733 -0.393570 -173.333764 3.320034 -2.203891 -9.933653 -0.130559 -2.676688 6.642280 0.000000 0.000000 0.000000 -3.609585 0.180258 -5.302808 7.314638 5.595906 -54.095647 -3.212960 12.550100 -0.690498 -11.537800 -4.459400 -31.930201 0.000000 -19.715000 0.000000 24.311701 8.048900 22.304899 10.350600 -9.253210 0.333561 9.237700 0.386431 -35.246300 0.000000 20.772100 0.000000 -16.580200 -1.010690 25.774599 5.800205 -0.259365 -5.362425 0.000000 0.000000 7.504660 -11.223363 0.494216 5.632170 0.000000 0.000000 -37.975300 1.578346 4.774083 -3.611787 0.000000 0.000000 6.392860 8.958516 -7.572200 9.044636 0.000000 0.000000 -27.732700 
-19.557159 9.204894 49.257541 -175.636292 -0.392090 -173.311623 3.388543 -2.137423 -9.898306 -0.297648 -2.632966 6.504496 0.000000 0.000000 0.000000 -3.485684 0.159517 -5.218238 7.335336 5.684803 -54.069537 -3.085140 12.458800 -0.627804 -11.581500 -4.440850 -31.853399 0.000000 -19.672199 0.000000 24.269199 8.070090 22.434799 10.427900 -9.372370 0.400654 9.228840 0.433730 -35.236599 0.000000 20.740101 0.000000 -16.599100 -1.006450 25.759600 5.801222 -0.234227 -5.371165 0.000000 0.000000 7.488030 -11.213656 0.479279 5.641518 0.000000 0.000000 -38.016899 1.578901 4.771682 -3.624308 0.000000 0.000000 6.383430 8.965341 -7.566977 9.040177 0.000000 0.000000 -27.730200 
